<?xml version="1.0" encoding="utf-8"?>
<!-- Generator: Adobe Illustrator 24.3.0, SVG Export Plug-In . SVG Version: 6.00 Build 0)  -->
<svg version="1.1" id="katman_1" xmlns="http://www.w3.org/2000/svg" xmlns:xlink="http://www.w3.org/1999/xlink" x="0px" y="0px"
	 viewBox="0 0 20 20" style="enable-background:new 0 0 20 20;" xml:space="preserve">
<style type="text/css">
	.st0{fill:none;stroke:url(#SVGID_1_);stroke-width:0.5;stroke-miterlimit:10;}
	.st1{font-family:'Corbel';}
	.st2{font-size:14.3407px;}
	.st3{fill:url(#SVGID_2_);}
</style>
<linearGradient id="SVGID_1_" gradientUnits="userSpaceOnUse" x1="-0.5335" y1="33.6583" x2="16.8133" y2="33.6583" gradientTransform="matrix(0.9877 -0.1563 0.1563 0.9877 -3.3 -21.9727)">
	<stop  offset="0" style="stop-color:#AD60FF"/>
	<stop  offset="0.5112" style="stop-color:#7856FF"/>
	<stop  offset="0.9944" style="stop-color:#5263FF"/>
</linearGradient>
<polygon class="st0" points="17.8,14.5 10,19 2.2,14.5 2.2,5.5 10,1 17.8,5.5 "/>
<g>
	<text transform="matrix(1.0141 0 0 1 5.4297 14.5073)" class="st1 st2">X</text>
	<g>
		
			<image style="overflow:visible;opacity:0.62;" width="60" height="65" xlink:href="5B1194BE.png"  transform="matrix(0.24 0 0 0.24 2.52 2.04)">
		</image>
		<g>
			<linearGradient id="SVGID_2_" gradientUnits="userSpaceOnUse" x1="13.7803" y1="9.823" x2="5.5713" y2="9.823">
				<stop  offset="0" style="stop-color:#AD60FF"/>
				<stop  offset="0.5112" style="stop-color:#7856FF"/>
				<stop  offset="0.9944" style="stop-color:#5263FF"/>
			</linearGradient>
			<path class="st3" d="M9.7,8.9l2.6-3.8h1.3l-3.2,4.6l3.4,4.8h-1.3l-2.8-4h0l-2.8,4H5.6L9,9.7L5.8,5.1H7L9.7,8.9L9.7,8.9z"/>
		</g>
	</g>
</g>
</svg>
